<?xml version="1.0" standalone="no"?>
<!DOCTYPE svg PUBLIC "-//W3C//DTD SVG 20010904//EN"
 "http://www.w3.org/TR/2001/REC-SVG-20010904/DTD/svg10.dtd">
<svg version="1.0" xmlns="http://www.w3.org/2000/svg"
 width="357.000000pt" height="229.000000pt" viewBox="0 0 357.000000 229.000000"
 preserveAspectRatio="xMidYMid meet">

<g transform="translate(0.000000,229.000000) scale(0.100000,-0.100000)"
fill="#000000" stroke="none">
<path d="M0 1145 l0 -1145 1785 0 1785 0 0 1145 0 1145 -1785 0 -1785 0 0
-1145z m1777 805 c12 -23 11 -25 -12 -28 -15 -2 -32 -17 -46 -38 -12 -20 -31
-45 -43 -55 -11 -11 -32 -43 -46 -72 -25 -50 -27 -52 -63 -49 -44 4 -46 -6
-11 -39 l26 -24 26 30 c15 17 43 50 63 74 l36 44 54 -18 c30 -10 55 -19 57
-20 1 -1 -13 -18 -33 -38 -19 -19 -35 -45 -35 -57 0 -29 20 -21 45 17 11 16
30 38 43 47 21 17 25 16 77 -9 35 -17 52 -31 49 -40 -7 -17 58 -59 123 -81 56
-19 61 -23 66 -49 1 -11 6 -25 10 -32 5 -8 -4 -18 -29 -28 -20 -8 -38 -15 -39
-15 -1 0 -63 -29 -138 -65 -75 -36 -140 -65 -145 -65 -5 0 -58 29 -117 65 -59
36 -109 65 -111 65 -8 0 -101 74 -152 122 -30 27 -82 72 -118 99 -35 28 -64
52 -64 54 0 16 64 67 99 80 40 14 219 59 265 67 11 2 20 11 22 22 1 10 13 29
25 43 32 33 98 30 116 -7z m318 -311 c44 -15 73 -28 64 -28 -22 -1 -141 40
-164 57 l-20 14 20 -7 c11 -5 56 -21 100 -36z m310 -49 c3 -5 1 -10 -4 -10 -6
0 -11 5 -11 10 0 6 2 10 4 10 3 0 8 -4 11 -10z m-39 -24 c10 -8 16 -17 13 -20
-3 -4 -17 2 -30 13 -27 23 -13 28 17 7z m-294 -480 c-2 -9 -15 -36 -30 -61
-127 -206 -207 -345 -198 -345 3 0 24 18 48 40 56 53 114 83 144 76 14 -4 24
-14 24 -23 0 -10 -22 -63 -50 -118 -27 -55 -51 -111 -52 -125 -5 -40 25 -35
79 14 52 47 63 49 63 10 0 -37 28 -57 69 -49 54 9 91 26 91 41 0 8 -32 22 -77
36 l-78 24 -3 40 c-4 55 31 96 113 133 118 54 195 50 195 -8 0 -32 -13 -43
-62 -55 -24 -5 -28 -3 -28 15 0 18 -4 20 -26 15 -49 -13 -115 -48 -125 -69
-13 -24 2 -37 44 -37 36 0 96 -25 113 -48 33 -43 8 -88 -71 -126 -68 -32 -157
-36 -187 -9 -19 17 -21 17 -50 0 -16 -9 -50 -17 -74 -17 -37 0 -46 4 -55 24
-16 35 -4 85 41 172 21 40 34 74 30 74 -10 0 -89 -83 -181 -190 l-65 -74 -69
-3 c-53 -3 -72 1 -87 13 -35 33 -19 118 38 201 20 29 34 57 32 64 -4 13 -136
-117 -211 -209 -38 -47 -55 -61 -69 -56 -11 3 -25 1 -32 -5 -7 -6 -34 -12 -60
-13 -36 -2 -51 2 -69 20 -67 67 20 338 166 519 81 100 136 135 177 113 56 -30
-13 -162 -210 -400 -93 -112 -110 -148 -84 -174 18 -19 44 -20 78 -4 32 14 49
39 127 181 40 73 72 107 100 107 19 0 21 -4 15 -35 -7 -38 -5 -42 16 -22 31
30 89 58 115 55 51 -6 38 -67 -33 -163 -39 -53 -67 -116 -56 -127 14 -14 52
-3 85 22 14 11 60 87 102 168 123 236 206 373 240 394 34 21 51 19 47 -6z
m-788 -6 c6 0 17 -4 25 -9 10 -7 2 -23 -36 -72 -26 -35 -57 -77 -68 -93 -11
-16 -29 -41 -40 -56 -143 -198 -202 -294 -187 -304 5 -3 35 18 66 46 62 55 83
55 71 0 -11 -51 -136 -152 -186 -152 -34 1 -59 23 -59 54 0 30 81 170 175 301
36 50 65 95 65 100 0 6 -26 -17 -56 -50 -146 -156 -380 -385 -393 -385 -32 0
-44 17 -38 49 4 18 47 109 97 203 86 161 105 208 63 158 -69 -85 -92 -113
-118 -147 -42 -53 -185 -271 -222 -338 -11 -21 -66 -26 -84 -8 -12 12 63 137
167 280 43 59 81 110 84 113 3 3 34 41 68 85 35 44 93 110 129 148 56 57 71
67 102 69 42 1 73 -1 78 -6 4 -3 -89 -177 -107 -201 -23 -30 -109 -205 -102
-205 5 0 26 19 45 43 55 65 244 257 322 326 60 53 74 61 99 57 16 -3 34 -6 40
-6z m1994 -298 c2 -14 -21 -64 -62 -134 -36 -62 -66 -120 -66 -130 0 -35 50
-18 113 40 20 19 30 23 38 15 16 -16 -23 -77 -69 -108 -42 -29 -92 -32 -127
-9 -47 31 -25 114 60 226 45 58 31 70 -21 19 -57 -56 -165 -173 -197 -215 -28
-37 -63 -47 -73 -22 -3 7 9 37 25 65 17 29 31 54 31 56 0 2 14 26 30 52 28 44
40 93 22 93 -15 0 -146 -143 -195 -213 -47 -66 -50 -69 -82 -63 -31 6 -38 2
-98 -57 -36 -35 -88 -96 -117 -136 -32 -43 -59 -71 -70 -71 -37 0 -50 12 -50
45 0 35 30 85 89 150 73 80 108 163 43 103 -90 -84 -163 -55 -127 50 8 25 21
52 29 61 7 9 30 48 51 86 20 39 43 76 49 83 13 14 46 6 46 -10 0 -6 -22 -52
-49 -102 -54 -101 -68 -136 -52 -136 19 0 114 92 185 177 64 77 96 98 111 74
3 -5 -31 -73 -76 -152 -44 -78 -85 -153 -90 -166 -8 -22 -7 -23 9 -11 74 52
144 132 197 223 72 124 81 135 117 135 33 0 35 -13 8 -47 -29 -37 -16 -41 23
-6 45 39 95 59 116 46 9 -5 17 -26 19 -47 l3 -36 42 34 c60 48 98 66 132 63
23 -1 31 -8 33 -25z"/>
<path d="M1665 1860 c3 -5 8 -10 11 -10 2 0 4 5 4 10 0 6 -5 10 -11 10 -5 0
-7 -4 -4 -10z"/>
<path d="M1427 988 c-81 -103 -203 -315 -167 -293 24 15 220 308 220 330 0 16
-23 0 -53 -37z"/>
</g>
</svg>
